<svg xmlns="http://www.w3.org/2000/svg" width="500" height="28" clip-rule="evenodd" version="1.1" xml:space="preserve"><g><title>Layer 1</title><g id="svg_1" transform="matrix(1 0 0 1 20.7747 2.45564e-11)"><g id="Salesforce-Developers"><g id="Homepage-Copy"><g id="Code-Samples-Card"><g id="Code-Samples-Artwork"><g id="Ground" transform="matrix(1 0 0 1 0 97.8457)"><g id="Rectangle" transform="matrix(1 0 0 -1 0 6.51852)"><rect id="svg_2" width="214.302" height="1" x="-1.038" y="89.956" fill="#260F8F" stroke="#260F8F" stroke-width=".5"/></g><rect id="Rectangle1" width="17.475" height="1" x="233.499" y="-84.438" fill="#260F8F" stroke="#260F8F" stroke-width=".5"/><rect id="Rectangle2" width="8.278" height="1" x="219.703" y="-84.438" fill="#260F8F" stroke="#260F8F" stroke-width=".5"/><path id="Shape" fill="#260F8F" fill-rule="nonzero" stroke="#260F8F" stroke-width=".5" d="m254.19294,-80.75936c-1.777,0 -3.219,-1.441 -3.219,-3.219c0,-1.778 1.442,-3.219 3.219,-3.219c1.778,0 3.22,1.441 3.22,3.219c-0.002,1.777 -1.442,3.217 -3.22,3.219zm0,-5.551c-1.288,0 -2.332,1.044 -2.332,2.332c0,1.288 1.044,2.332 2.333,2.332c1.288,0 2.332,-1.044 2.332,-2.332c-0.002,-1.287 -1.045,-2.331 -2.333,-2.332z"/><path id="Shape1" fill="#260F8F" fill-rule="nonzero" stroke="#260F8F" stroke-width=".5" d="m216.48394,-80.75936c-1.778,0 -3.22,-1.441 -3.22,-3.219c0,-1.778 1.442,-3.219 3.22,-3.219c1.777,0 3.219,1.441 3.219,3.219c-0.002,1.777 -1.442,3.217 -3.219,3.219zm0,-5.551c-1.289,0 -2.333,1.044 -2.333,2.332c0,1.288 1.045,2.332 2.333,2.332c1.288,0 2.332,-1.044 2.332,-2.332c-0.002,-1.287 -1.045,-2.331 -2.332,-2.332z"/><path id="Shape2" fill="#260F8F" fill-rule="nonzero" stroke="#260F8F" stroke-width=".5" d="m230.27894,-80.75936c-1.777,0 -3.218,-1.441 -3.218,-3.219c0,-1.778 1.441,-3.219 3.219,-3.219c1.778,0 3.219,1.441 3.219,3.219c-0.002,1.777 -1.442,3.218 -3.22,3.219zm0,-5.551c-1.288,0 -2.332,1.044 -2.332,2.332c0,1.288 1.045,2.332 2.333,2.332c1.288,0 2.332,-1.044 2.332,-2.332c-0.002,-1.287 -1.045,-2.331 -2.333,-2.332z"/></g></g></g></g></g></g></g></svg>